<svg xmlns="http://www.w3.org/2000/svg" width="132.77" height="99.57" viewBox="0 0 132.77 99.57">
  <g id="Jacuzzi" transform="translate(11066 -1366.798)">
    <path id="Path_128" data-name="Path 128" d="M-1159.173,9.855v1.99c-.225.085-.2.319-.264.485a4.311,4.311,0,0,1-4.216,2.887c-5.357.012-10.715,0-16.073,0q-14.5,0-29,0c-.191,0-.382-.022-.574-.033q-1.325,0-2.651-.008-5.211.022-10.425.043c-1.13,0-2.264.035-3.393-.012a1.991,1.991,0,0,0-1.467.589c-1.587,1.365-3.2,2.7-4.8,4.046l-2.616,2.2q-.924.794-1.848,1.587l-2.553,2.19c-.629.538-1.246,1.087-1.887,1.61a4.458,4.458,0,0,1-2.9,1.023q-21.793-.01-43.583-.01a4.316,4.316,0,0,1-4.271-2.93c-.057-.143-.04-.342-.246-.4V22.965c.059-.048.151-.085.172-.148.837-2.311,2.52-3.232,4.927-3.186,3.5.07,7,.035,10.5.043l2.663.008,7.628-.01,2.661.013,6.8,0,2.661-.01c.5,0,.993,0,1.488.007l2.827-.012,1.323.008q1.33,0,2.663.012a9.6,9.6,0,0,0,2.16-1.622c.264-.191.518-.4.777-.6l2.526-2.16q4.684-3.972,9.369-7.942a3.17,3.17,0,0,1,1.764-.82c.257.244.578.143.87.143q32.246.007,64.49,0c.292,0,.616.1.86-.168a4.183,4.183,0,0,1,3.335,2.615C-1159.374,9.374-1159.444,9.691-1159.173,9.855Z" transform="translate(-9774.057 1396.771)" fill="current"/>
    <path id="Path_129" data-name="Path 129" d="M-1048.211-213.322c1.077.82,1.151,1.257.436,2.494a14.8,14.8,0,0,0-1.137,2.389,5.635,5.635,0,0,0,.58,5.227c.658,1.021,1.359,2.017,1.972,3.065a6.761,6.761,0,0,1,.639,5.519,14.414,14.414,0,0,1-1.749,3.737,1.335,1.335,0,0,1-1.869.481,1.341,1.341,0,0,1-.391-1.834,17.847,17.847,0,0,0,1.159-2.288,5.27,5.27,0,0,0-.46-4.993c-.587-.9-1.209-1.785-1.783-2.7a7.493,7.493,0,0,1-.77-6.674,18.484,18.484,0,0,1,1.7-3.583,3.414,3.414,0,0,1,.842-.844Z" transform="translate(-9974.141 1580.12)" fill="current"/>
    <path id="Path_130" data-name="Path 130" d="M-795.28-213.322c1.049.878,1.111,1.276.388,2.523a14.223,14.223,0,0,0-1.118,2.4,5.663,5.663,0,0,0,.6,5.228c.556.857,1.134,1.7,1.689,2.559a7.132,7.132,0,0,1,.612,6.887,16.417,16.417,0,0,1-1.438,2.794,1.293,1.293,0,0,1-1.834.533,1.323,1.323,0,0,1-.382-1.887,15.47,15.47,0,0,0,1.1-2.223,5.294,5.294,0,0,0-.466-5c-.525-.812-1.076-1.607-1.611-2.412a7.717,7.717,0,0,1-.784-7.356,21.914,21.914,0,0,1,1.611-3.264,3.3,3.3,0,0,1,.8-.781Z" transform="translate(-10185.083 1580.12)" fill="current"/>
    <path id="Path_131" data-name="Path 131" d="M-648.194,320.3a3.763,3.763,0,0,1-1.142-2.105c-.508-2.144-1.052-4.279-1.6-6.413-.091-.356-.151-.6.3-.756a20.026,20.026,0,0,0,6.416-3.9c.018.375.043.657.043.94,0,3.365-.028,6.731.018,10.1a2.108,2.108,0,0,1-1.051,2.138Z" transform="translate(-10308.603 1146.07)" fill="current"/>
    <path id="Path_132" data-name="Path 132" d="M-1180.635,327.235a2.532,2.532,0,0,1-.927-2.3c.052-2.873.017-5.747.016-8.621v-.871c1.047.488,2.008.943,2.975,1.384a15.6,15.6,0,0,0,3.123,1.079c.656.143.826.341.632,1.022-.573,2.016-1.082,4.052-1.584,6.088a4.131,4.131,0,0,1-1.082,2.221Z" transform="translate(-9866.112 1139.133)" fill="current"/>
    <path id="Path_133" data-name="Path 133" d="M-920.879-177.8a1.731,1.731,0,0,1-.286.9c-.274.478-.551.956-.8,1.447a6.248,6.248,0,0,0,.467,7.081c.511.684.972,1.409,1.419,2.138a7.121,7.121,0,0,1,.582,6.512,15.121,15.121,0,0,1-1.477,2.953,1.347,1.347,0,0,1-1.9.585,1.285,1.285,0,0,1-.338-1.939,12.291,12.291,0,0,0,1.279-2.771,4.96,4.96,0,0,0-.56-4.137c-.52-.845-1.078-1.668-1.636-2.49a7.906,7.906,0,0,1-.769-7.876,17.468,17.468,0,0,1,1.6-3.078,1.245,1.245,0,0,1,1.518-.533A1.278,1.278,0,0,1-920.879-177.8Z" transform="translate(-10079.587 1551.566)" fill="current"/>
    <path id="Path_134" data-name="Path 134" d="M-669.375-179.113a1.319,1.319,0,0,1,1.14,1.986,23.645,23.645,0,0,0-1.31,2.578,5.828,5.828,0,0,0,.561,5.68c.549.828,1.11,1.648,1.644,2.485a7.2,7.2,0,0,1,.571,6.886,16.586,16.586,0,0,1-1.3,2.582c-.547.887-1.291,1.139-1.994.7-.683-.43-.782-1.143-.266-2.027a11.324,11.324,0,0,0,1.3-2.942,4.815,4.815,0,0,0-.536-3.752c-.522-.877-1.092-1.725-1.672-2.566a7.989,7.989,0,0,1-.732-8.175,21.3,21.3,0,0,1,1.415-2.711A1.416,1.416,0,0,1-669.375-179.113Z" transform="translate(-10290.451 1551.59)" fill="current"/>
    <path id="Path_135" data-name="Path 135" d="M-1174.569-117.909a5.709,5.709,0,0,0-1.018-3.272c-.51-.788-1.057-1.553-1.569-2.34a7.579,7.579,0,0,1-.771-7.051,17.714,17.714,0,0,1,1.734-3.477,1.25,1.25,0,0,1,1.766-.534,1.311,1.311,0,0,1,.469,1.864,16.085,16.085,0,0,0-1.429,2.98,5.586,5.586,0,0,0,.537,4.935c.5.8,1.02,1.578,1.557,2.349a7.374,7.374,0,0,1,.64,7.771,24.447,24.447,0,0,1-1.212,2.261,1.253,1.253,0,0,1-1.809.6,1.307,1.307,0,0,1-.417-1.927A9.041,9.041,0,0,0-1174.569-117.909Z" transform="translate(-9868.704 1514.604)" fill="current"/>
    <path id="Path_136" data-name="Path 136" d="M-1140.7,68.718c-3.279,9.905-6.424,19.856-9.831,29.718a17.989,17.989,0,0,1-13.288,12.136,11.378,11.378,0,0,1-2.8.266q-34.265-.008-68.529.013c-9.261.022-16.365-3.971-21.717-11.313a31.1,31.1,0,0,1-5.674-15.2c-.088-.8-.128-1.605-.29-2.385-.15-.712.108-.815.742-.807,2.379.033,4.758.013,7.135.013,11.615,0,23.23-.017,34.846.017a6.943,6.943,0,0,0,4.843-1.775c1.676-1.476,3.423-2.872,5.139-4.3l2.316-1.989,4.628-3.949c.786-.8,1.614-1.5,2.862-1.165a8.149,8.149,0,0,1,1.833,0,23.411,23.411,0,0,1,3.146.015.4.4,0,0,0,.671,0,3.68,3.68,0,0,1,1.321,0,.4.4,0,0,0,.671,0,1.014,1.014,0,0,1,.657,0c.058.118.114.121.172,0q1.239-.01,2.477-.017A6.419,6.419,0,0,1-1187.7,68a12.826,12.826,0,0,1,2.314.007.393.393,0,0,0,.674,0q3.227-.017,6.454-.032l4.172.018a24.472,24.472,0,0,1,3.141.013c.056.12.114.121.172,0,1.932-.093,3.865-.061,5.8-.012a7.611,7.611,0,0,1,2,.013l2.814-.03q1.666.005,3.333.013a16.761,16.761,0,0,1,2.646.023,3.418,3.418,0,0,1,1.317-.06c3.871-.008,7.742.012,11.613-.02C-1140.554,67.934-1140.493,68.08-1140.7,68.718Z" transform="translate(-9798.301 1345.572)" fill="current"/>
  </g>
</svg>
