<svg xmlns="http://www.w3.org/2000/svg" width="105.029" height="99.107" viewBox="0 0 105.029 99.107">
  <path id="sauna_" data-name="sauna " d="M688.745,71.137a4.016,4.016,0,0,0-1.827-3.645Q662.4,49.4,637.971,31.19c-1.248-.934-2.034-1.075-3.372-.075q-24.5,18.312-49.122,36.459a3.754,3.754,0,0,0-1.711,3.463c.041,18.614.066,37.236-.033,55.85-.008,2.264.769,2.645,2.786,2.636,16.523-.074,33.045-.041,49.568-.041,16.6,0,33.194-.042,49.79.049,2.182.009,2.893-.454,2.885-2.777Q688.613,98.946,688.745,71.137ZM612.389,96.264c-1.5,4.48-3.323,8.844-4.348,13.473a10.318,10.318,0,0,0,.91,7.836c1.157,1.976-1.232,2.447-2.108,3.447-1,1.141-1.405-.355-1.794-.885-2.694-3.695-2.637-7.811-1.6-12,1.273-5.116,3.331-9.984,4.959-14.985,2.025-6.257,2.868-12.539.347-18.862a15.93,15.93,0,0,0-1.678-3.306c-.992-1.413-.835-2.2.636-3.281,1.727-1.265,2.538-1.132,3.6.744a28.8,28.8,0,0,1,3.728,14.952C615.076,87.37,613.877,91.842,612.389,96.264ZM638,98.446c-1.389,4.025-3,7.968-3.811,12.175a8.776,8.776,0,0,0,1.017,6.7c1.488,2.347-1.108,2.645-1.975,3.637-1.091,1.248-1.546-.405-1.95-.992-2.711-3.893-2.546-8.224-1.29-12.489,1.687-5.7,3.819-11.282,5.513-16.985,2.075-6.984,1.686-13.778-2.372-20.077-1.537-2.38,1.116-2.323,1.943-3.265,1.124-1.273,1.636-.116,2.173.736a26.29,26.29,0,0,1,4.141,14.762C641.45,88.172,639.764,93.313,638,98.446Zm27.35-3.381c-1.538,4.786-3.521,9.423-4.662,14.341a10.76,10.76,0,0,0,.876,8.282c1.05,1.851-1.331,2.405-2.248,3.405-.893.975-1.265-.38-1.637-.876-2.769-3.752-2.843-7.976-1.6-12.2,1.5-5.116,3.364-10.134,5-15.209,2-6.182,2.719-12.406.215-18.647a22.666,22.666,0,0,0-1.331-2.7c-1.273-2.265-.488-4.141,2-4.819.951-.265,1.008.529,1.3.959a25.624,25.624,0,0,1,4.331,14.77A40.4,40.4,0,0,1,665.354,95.065Z" transform="translate(-583.732 -30.425)" fill="current"/>
</svg>
