<svg xmlns="http://www.w3.org/2000/svg" width="99.247" height="99.051" viewBox="0 0 99.247 99.051">
  <g id="Swimming_Pool_" data-name="Swimming Pool " transform="translate(11865 -1366.798)">
    <path id="Path_114" data-name="Path 114" d="M310.112,217.5a3.213,3.213,0,0,1,2.991-1.345q46.632.055,93.264,0a3.214,3.214,0,0,1,2.991,1.345v1.324a28.086,28.086,0,0,0-3.639,6.433c-3.768,6.555-9.157,10.5-16.972,10.548H330.772c-7.827-.03-13.243-3.959-17.016-10.543a28.174,28.174,0,0,0-3.643-6.439Z" transform="translate(-12175.112 1230.039)" fill="current"/>
    <path id="Path_115" data-name="Path 115" d="M392.485,36.335c3.542,1.012,7.074,1.979,10.091,4.3A22.219,22.219,0,0,1,411.419,56.7a5.216,5.216,0,0,1-.148,2.161,1.76,1.76,0,0,1-2.065,1.262c-1.238-.258-1.669-1.136-1.743-2.413-.453-7.775-4.3-13.283-11.5-16.186-10.164-4.1-22.262,2.644-23.754,13.217,1.36-.9,2.578-1.857,3.924-2.573a15.889,15.889,0,0,1,23.386,12.557c.12,1.274.139,2.529-1.234,3.231a1.76,1.76,0,0,1-2.028-.391c-.763-.634-.669-1.551-.718-2.436a12.022,12.022,0,0,0-12.11-11A11.8,11.8,0,0,0,371.86,65.946c2.653-1.482,5.343-2.3,8.381-1.464a10.219,10.219,0,0,1,7.389,8.872c.1,1.441-.379,2.591-1.913,2.643-1.344.047-1.95-.874-2.083-2.281a5.889,5.889,0,0,0-6.145-5.611c-3.326.14-5.674,2.7-5.737,6.272a26.854,26.854,0,0,0,.034,3.526c.2,1.7-.394,2.205-2.13,2.184-1.57-.019-2.043-.447-1.9-1.968a31.405,31.405,0,0,0,.02-4.187,5.943,5.943,0,0,0-11.86-.434c-.136,1.569-.681,2.7-2.31,2.481-1.648-.226-1.852-1.628-1.655-3.07.884-6.468,8.031-11.533,15.545-7.079.743-4.437-3.052-9.607-8.158-11.114A11.847,11.847,0,0,0,344,65.353c-.073,1.507-.461,2.787-2.123,2.7-1.838-.1-2.045-1.622-1.872-3.108.695-5.957,3.491-10.579,9.022-13.124A15.661,15.661,0,0,1,365.1,53.172c.723.482,1.381,1.061,2.372,1.832a17.442,17.442,0,0,0-8.125-11.974,17.847,17.847,0,0,0-27.271,14.46c-.061,1.426-.415,2.6-1.958,2.615-1.7.016-2.045-1.25-2.036-2.748.061-9.629,7.674-18.538,17.645-20.593.339-.07.751.045.888-.43h6.175c2.243.51,4.668.257,6.715,1.595a24.762,24.762,0,0,1,10.272,9.8A24.425,24.425,0,0,1,380,37.951c1.917-1.265,4.205-1.074,6.307-1.616Z" transform="translate(-12185.146 1330.464)" fill="current"/>
    <path id="Path_116" data-name="Path 116" d="M379.849,139.867q15.215,0,30.43,0c1.25,0,2.669-.195,3.133,1.357.413,1.382-.321,2.213-1.716,2.522-.191.042-.347.437-.44.7-3.085,8.565-9.818,13.258-17.784,16.487-14.308,5.8-31.433,1.769-41.183-9.53a18.93,18.93,0,0,1-3.355-5.385c-.44-1.109-.562-2.341-2.077-2.759a1.479,1.479,0,0,1-.711-1.9,2.05,2.05,0,0,1,2.169-1.488c3.969.015,7.938-.016,11.908-.019q9.813-.007,19.625,0Z" transform="translate(-12195.185 1272.658)" fill="current"/>
    <path id="Path_117" data-name="Path 117" d="M399.962,195.358a38.913,38.913,0,0,0,19.722.045c0,2.361.838,5.245-.244,6.695-1.011,1.355-4.09.351-6.256.386-3.884.061-7.772-.025-11.655.06-1.239.027-1.668-.294-1.594-1.566C400.041,199.154,399.962,197.32,399.962,195.358Z" transform="translate(-12225.271 1241.655)" fill="current"/>
  </g>
</svg>
