<svg xmlns="http://www.w3.org/2000/svg" width="133.857" height="93.837" viewBox="0 0 133.857 93.837">
  <g id="Swimming_Pool_" data-name="Swimming Pool " transform="translate(12152 -1369.799)">
    <path id="Path_112" data-name="Path 112" d="M4.522,123.312a45.476,45.476,0,0,0,17.088-2.964,36.311,36.311,0,0,1,14.116-2.463,36.309,36.309,0,0,1,14.116,2.463,45.474,45.474,0,0,0,17.088,2.964,45.47,45.47,0,0,0,17.087-2.964,36.307,36.307,0,0,1,14.115-2.463,36.3,36.3,0,0,1,14.115,2.463,45.466,45.466,0,0,0,17.087,2.964,4.522,4.522,0,0,0,0-9.045,36.3,36.3,0,0,1-14.115-2.463,45.466,45.466,0,0,0-17.087-2.964c-1.56,0-2.984.054-4.3.147V64.58a11.136,11.136,0,1,1,22.272,0,4.522,4.522,0,1,0,9.045,0,20.181,20.181,0,1,0-40.362,0V81.708H49.066V64.58a11.136,11.136,0,1,1,22.272,0,4.522,4.522,0,1,0,9.045,0,20.181,20.181,0,1,0-40.361,0v44.408c-1.313-.094-2.736-.147-4.3-.147A45.473,45.473,0,0,0,18.639,111.8a36.312,36.312,0,0,1-14.116,2.463,4.522,4.522,0,0,0,0,9.045Zm80.269-32.56v5.879H49.066V90.752ZM49.066,105.675H84.792v4.9c-1.352.395-2.574.818-3.745,1.225a36.309,36.309,0,0,1-14.116,2.463,36.311,36.311,0,0,1-14.116-2.463c-1.173-.408-2.4-.831-3.748-1.226v-4.9Z" transform="translate(-12152 1325.4)" fill="current"/>
    <path id="Path_113" data-name="Path 113" d="M129.336,225.919a36.305,36.305,0,0,1-14.115-2.463,45.465,45.465,0,0,0-17.087-2.964,45.468,45.468,0,0,0-17.087,2.964,36.31,36.31,0,0,1-14.116,2.463,36.313,36.313,0,0,1-14.116-2.463,45.472,45.472,0,0,0-17.088-2.964,45.472,45.472,0,0,0-17.088,2.964,36.313,36.313,0,0,1-14.116,2.463,4.522,4.522,0,0,0,0,9.045A45.477,45.477,0,0,0,21.61,232a36.312,36.312,0,0,1,14.116-2.463A36.31,36.31,0,0,1,49.843,232a45.475,45.475,0,0,0,17.088,2.964A45.47,45.47,0,0,0,84.018,232a36.308,36.308,0,0,1,14.115-2.463A36.305,36.305,0,0,1,112.249,232a45.466,45.466,0,0,0,17.087,2.964,4.522,4.522,0,0,0,0-9.045Z" transform="translate(-12152 1228.672)" fill="current"/>
  </g>
</svg>
