<svg xmlns="http://www.w3.org/2000/svg" width="102.912" height="103.622" viewBox="0 0 102.912 103.622">
  <g id="Turkish_Bath" data-name="Turkish Bath" transform="translate(11596 -1364.799)">
    <path id="Path_118" data-name="Path 118" d="M-132.977-7.894c.012-.726.013-1.452.038-2.177a2.139,2.139,0,0,1,2.119-2.145,2.166,2.166,0,0,1,2.135,2.142c.031.725.035,1.45.05,2.175a11.276,11.276,0,0,0,.022,2.212l0,.362c-.072,2.618-.082,5.237.006,7.856-.167,2.538.009,5.08-.094,7.617-.036.888.166,1.371,1.124,1.311a2.285,2.285,0,0,1,1.265,2.234c-.012.895-.075,1.793-.024,2.684a2.389,2.389,0,0,1-1.241,2.456c-1.811.158-3.626.054-5.44.065a1.935,1.935,0,0,1-2.135-2.123q-.019-1.547-.037-3.1c.138-1.6.521-2.037,2.083-2.373.121.018.149-.045.129-.149q0-4.127-.006-8.255Z" transform="translate(-11384.623 1377.014)" fill="current"/>
    <path id="Path_119" data-name="Path 119" d="M-153.562,18.005a11.368,11.368,0,0,1-3.8-6.655A10.762,10.762,0,0,1-153.143.983a6.2,6.2,0,0,1,1.482-.837v6.49q0,.514,0,1.028-.024,5.243-.047,10.487c0,.2.012.392,0,.587-.017.385-.211.406-.485.218C-152.649,18.642-153.1,18.322-153.562,18.005Z" transform="translate(-11369.371 1368.549)" fill="current"/>
    <path id="Path_120" data-name="Path 120" d="M-101.876.767c.057-.208.062-.483.407-.273.257.156.522.3.784.444,3.73,2.753,5.079,6.473,4.461,10.99a10.7,10.7,0,0,1-5.652,7.4V11.55Q-101.876,6.159-101.876.767Z" transform="translate(-11407.434 1368.362)" fill="current"/>
    <path id="Path_121" data-name="Path 121" d="M-319.872-5.39c.012-.307.03-.613.035-.92A2.131,2.131,0,0,1-318-8.549a2.136,2.136,0,0,1,2.333,1.495c.04.1.072.211.107.317q.021,6.732.042,13.464c-.2,2.264,0,4.532-.058,6.8-.007.255.127.335.355.36,1.373.147,1.891,1.036,1.976,2.295-.012.9-.02,1.792-.036,2.688a2.07,2.07,0,0,1-2.342,2.315l-4.705.033c-1.5-.562-1.809-1.011-1.826-2.606-.009-.811-.021-1.622-.032-2.432a2.212,2.212,0,0,1,1.748-2.28.214.214,0,0,0,.14-.324l-.007-.034c-.056.207.028.329.238.313.228-.017.239-.184.2-.364a3.623,3.623,0,0,0,.048-1.512c0-2.2-.032-4.394-.053-6.591Q-319.873,0-319.872-5.39Z" transform="translate(-11256.561 1374.522)" fill="current"/>
    <path id="Path_122" data-name="Path 122" d="M-292.791,229.941a69.128,69.128,0,0,1-10.768-1.252l-3.976-1c-2.283-.811-4.56-1.636-6.795-2.573a44.594,44.594,0,0,1-10.66-6.824l-1.656-1.73c-.17-.22-.343-.438-.51-.661a8.281,8.281,0,0,1-2.082-4.929,2.5,2.5,0,0,1,1.858-2.581,17.555,17.555,0,0,1,2.226-.387l4.574.286-1.871-2.483-2.493-4.229a66.358,66.358,0,0,1-2.67-6.2,44.932,44.932,0,0,1-1.3-5.072,20.518,20.518,0,0,0,3.807,1.989,21.819,21.819,0,0,0,10.739,1.731,17.4,17.4,0,0,0,5.51-.968,3.333,3.333,0,0,1,2.335.005,11.064,11.064,0,0,0,2.766.652,13.062,13.062,0,0,0,2.975.377,22.75,22.75,0,0,0,8.339-1,1.965,1.965,0,0,1,1.6.029,7.287,7.287,0,0,0,1.838.478,21.785,21.785,0,0,0,7,.4,17.183,17.183,0,0,0,4.615-.763,2.564,2.564,0,0,1,1.388,0,17.877,17.877,0,0,0,4.784.774,21.7,21.7,0,0,0,10.848-1.709l.05-.027,0-.056.386-.1a23.272,23.272,0,0,0,3.792-2.06,43.783,43.783,0,0,1-1.316,5.087,61,61,0,0,1-3.145,7.277l-1.734,2.877-2.361,3.206,4.273-.5a13.072,13.072,0,0,1,3.836.365,2.53,2.53,0,0,1,1.921,2.635,5.567,5.567,0,0,1-.287,1.65,13.243,13.243,0,0,1-2.631,4.262l-3.06,2.855c-1.436.957-2.819,1.99-4.3,2.882-2.01,1.211-4.152,2.154-6.259,3.17l-4.741,1.7-6.06,1.5c-2.275.29-4.538.68-6.834.767C-290.161,229.857-291.476,229.9-292.791,229.941Z" transform="translate(-11251.729 1238.48)" fill="current"/>
    <path id="Path_123" data-name="Path 123" d="M-283.313,13.786a10.9,10.9,0,0,1-3.572,6.732c-.392.265-.778.541-1.18.792-.274.171-.566.517-.877.357-.282-.146-.111-.56-.114-.851-.023-2.458-.03-4.916-.041-7.374q.018-4.53.041-9.061c0-.231-.139-.544.132-.678.213-.105.412.119.593.236.493.317.973.654,1.458.983A10.507,10.507,0,0,1-283.313,13.786Z" transform="translate(-11279.214 1366.131)" fill="current"/>
    <path id="Path_124" data-name="Path 124" d="M-341.212,13.729c-.011,2.414-.042,4.827-.02,7.241.006.709-.123.846-.761.455a10.222,10.222,0,0,1-5.036-8.2,10.166,10.166,0,0,1,5.095-9.367c.235-.145.57-.555.726.1l0,.165Z" transform="translate(-11239.544 1366.185)" fill="current"/>
    <path id="Path_125" data-name="Path 125" d="M-319.3,104.754l.248-.016c1.683.009,3.366.026,5.05.026q19.5.008,38.994-.005c.727,0,1.026.119.981.941a14.348,14.348,0,0,1-3.67,8.665c-.272.321-.547.639-.82.958a29.127,29.127,0,0,1-4.167,3.213,27.277,27.277,0,0,1-5.2,2.29c-.39.121-.635.232-.436.746a2.531,2.531,0,0,1-.265,2.172,15.018,15.018,0,0,1-1.692,2.384,21.943,21.943,0,0,1-3.069,2.321,19.991,19.991,0,0,1-10.538,2.091A21.291,21.291,0,0,1-309,129.3a.863.863,0,0,0-.72.016,21.207,21.207,0,0,1-4.953,1.216,19.747,19.747,0,0,1-8.735-1.241,1.807,1.807,0,0,0-1.878.075,20.686,20.686,0,0,1-10.958.817,22.775,22.775,0,0,1-3.783-1.355.7.7,0,0,0-.7.027,19.131,19.131,0,0,1-6.8,1.726,21.451,21.451,0,0,1-6.875-.894c-1.123-.363-2.16-.91-3.235-1.374a27.788,27.788,0,0,1-2.848-2.185c-.364-.459-.759-.9-1.086-1.38-.9-1.331-1.561-2.7-.244-4.258a28.937,28.937,0,0,1-6.74-2.7l-3.163-2.29a15.373,15.373,0,0,1-4.889-7.932c-.191-.889-.575-1.823-.081-2.753a15.625,15.625,0,0,0,2.685-.014,1.049,1.049,0,0,0,.7.011c1.684.019,3.367.051,5.051.053q12.343.008,24.685,0c.2,0,.391-.022.587-.035l.344,0c3.536.06,7.073.084,10.609-.037.53.641.2,1.354.1,2-.741,4.438-3.353,7.629-6.931,10.123a24.412,24.412,0,0,1-9.089,3.822c-.234.049-.545.008-.587.355a.689.689,0,0,0,.358.625,4.339,4.339,0,0,0,1.347.677,45.945,45.945,0,0,0,10.6,1.708,97.3,97.3,0,0,0,10.778.453c2.829.112,5.652-.053,8.474-.206a9.524,9.524,0,0,0,2.326-.171,35.111,35.111,0,0,0,4.437-.375,35.763,35.763,0,0,0,6.339-1.232,3.954,3.954,0,0,0,1.924-.87l-1.926-.4c-1.164-.4-2.343-.755-3.49-1.2a23.56,23.56,0,0,1-7.073-4.451,1.31,1.31,0,0,0-.521-.519c-.286-.341-.575-.679-.856-1.024A14.18,14.18,0,0,1-319.3,104.754Z" transform="translate(-11219.063 1296.921)" fill="current"/>
  </g>
</svg>
