<svg xmlns="http://www.w3.org/2000/svg" width="184.859" height="68.124" viewBox="0 0 184.859 68.124">


  <g id="Group_1" data-name="Group 1" transform="translate(2037.344 436.86)">
    <path id="Path_3" data-name="Path 3" d="M-1061.581-245.886c.329.763.643,1.451.924,2.153a14.571,14.571,0,0,0,1.14,2.062.6.6,0,0,1-.118.848,11.9,11.9,0,0,1-7.456,3.689,13.191,13.191,0,0,1-14.6-10.966,12.974,12.974,0,0,1,11.233-15.024A13.429,13.429,0,0,1-1055.847-253a11.9,11.9,0,0,1,.32,3.149c-.175,3.662,2.69,6.576,5.611,7.515,6.664,2.142,11.095-3.629,10.769-8.153a8.605,8.605,0,0,0-5.878-7.582,8.566,8.566,0,0,0-9.207,3.261c-.09.125-.176.254-.325.47-.605-1.171-1.178-2.276-1.748-3.383-.757-1.468-.773-1.489.528-2.533,6.862-5.51,18.727-3.694,21.194,7.655,1.888,8.684-5.569,16.526-14.416,15.494a12.693,12.693,0,0,1-8.043-4.256,12.57,12.57,0,0,1-3.592-9.44,5.651,5.651,0,0,0-.652-2.859,8.732,8.732,0,0,0-8-4.681,8.377,8.377,0,0,0-7.332,5.7,8.174,8.174,0,0,0,3.208,9.33,8.117,8.117,0,0,0,10.11-.7A14.224,14.224,0,0,0-1061.581-245.886Z" transform="translate(-826.207 -150.12)" fill="current"/>
    <path id="Path_4" data-name="Path 4" d="M-1294.637-242.077q0-10.2-.012-20.4c0-.514.112-.676.648-.672,1.215.009,2.431-.052,3.646-.109.35-.016.464.072.446.439-.035.7-.023,1.394-.008,2.091.009.4.2.482.5.208,6.774-6.064,19.065-1.71,20.682,8.34,1.367,8.5-4.627,14.144-11.352,15a13.052,13.052,0,0,1-9.352-1.993c-.135-.093-.286-.267-.479-.119a.355.355,0,0,0-.075.487,1.389,1.389,0,0,1,.082.727c0,5.494-.007,10.988.017,16.481,0,.547-.158.662-.667.645q-1.755-.056-3.513,0c-.489.017-.579-.137-.578-.6Q-1294.625-231.81-1294.637-242.077Zm21.361-8.106a8.323,8.323,0,0,0-8.3-8.343,8.323,8.323,0,0,0-8.328,8.246,8.315,8.315,0,0,0,8.265,8.373A8.316,8.316,0,0,0-1273.276-250.183Z" transform="translate(-642.225 -150.086)" fill="current"/>
    <path id="Path_5" data-name="Path 5" d="M-1593.341-237.3c-7.246-.013-12.85-4.541-14.076-10.734a13.6,13.6,0,0,1,11.431-15.767c5.185-.627,9.179,1.5,12.42,5.375.26.31.195.465-.111.674q-1.644,1.124-3.26,2.288c-.274.2-.408.2-.628-.108a8.447,8.447,0,0,0-9.118-2.922,7.586,7.586,0,0,0-5.688,6.715,8.071,8.071,0,0,0,1.232,6,7.959,7.959,0,0,0,6.28,3.191,9.261,9.261,0,0,0,4.609-.794,5,5,0,0,0,2.457-2.127c.177-.326.306-.291.549-.1,1.1.858,2.2,1.715,3.321,2.549.315.235.314.4.077.691A12.708,12.708,0,0,1-1593.341-237.3Z" transform="translate(-371.565 -149.551)" fill="current"/>
    <path id="Path_6" data-name="Path 6" d="M-2018.191-278.095q9.518-8.473,18.956-16.873c.927-.825.912-1.244-.132-1.978-2.89-2.031-5.789-4.05-8.61-6.176a24.512,24.512,0,0,1-2.348-2.03,3.567,3.567,0,0,1-.729-4.1,3.693,3.693,0,0,1,3-2.592,6.169,6.169,0,0,1,5.757,1.737c3.172,3.106,6.149,6.4,9.164,9.652.627.677,1.248,1.361,1.871,2.043a3.36,3.36,0,0,1-.736,5.3c-8.462,5.07-17.036,9.95-25.564,14.908A.654.654,0,0,1-2018.191-278.095Z" transform="translate(-16.561 -107.992)" fill="current"/>
    <path id="Path_7" data-name="Path 7" d="M-1408.585-343.182c0-6.4.008-12.792-.014-19.188,0-.577.158-.71.71-.69,1.193.044,2.389.047,3.581,0,.584-.024.743.119.742.728q-.034,14.7-.016,29.391c0,3.04-.015,6.081.014,9.121.005.549-.162.67-.676.654-1.216-.036-2.434-.042-3.649,0-.556.02-.708-.122-.707-.693C-1408.577-330.3-1408.585-336.741-1408.585-343.182Z" transform="translate(-543.69 -63.813)" fill="current"/>
    <path id="Path_8" data-name="Path 8" d="M-1346.633-343.061c0,6.4-.009,12.792.014,19.188,0,.576-.157.709-.709.691-1.283-.043-2.568-.024-3.852-.007-.346,0-.51-.085-.458-.45a2.394,2.394,0,0,0,0-.338q0-19.155-.017-38.309c0-.667.174-.825.814-.794,1.169.056,2.344.047,3.513,0,.556-.021.709.121.707.693C-1346.641-355.943-1346.633-349.5-1346.633-343.061Z" transform="translate(-592.933 -63.796)" fill="current"/>
    <path id="Path_9" data-name="Path 9" d="M-703-343.049c0,6.4-.008,12.793.013,19.189,0,.548-.1.725-.683.7-1.215-.052-2.434-.047-3.649,0-.552.021-.7-.11-.7-.684.023-7.185.015-14.369.015-21.554,0-5.676.007-11.352-.012-17.027,0-.489.091-.65.614-.631,1.238.045,2.479.046,3.717,0,.552-.02.7.11.7.684C-703.01-355.932-703-349.49-703-343.049Z" transform="translate(-1149.498 -63.817)" fill="current"/>
    <path id="Path_10" data-name="Path 10" d="M-1705.886-324.972a6.425,6.425,0,0,1,6.419,6.456,6.427,6.427,0,0,1-6.425,6.383,6.425,6.425,0,0,1-6.419-6.456A6.427,6.427,0,0,1-1705.886-324.972Z" transform="translate(-281.064 -96.752)" fill="current"/>
    <path id="Path_11" data-name="Path 11" d="M-1915.772-435.992c2.123,1.771,4.258,3.528,6.365,5.317,4.614,3.918,9.238,7.825,13.74,11.873.653.587,1.271,1.212,1.927,1.794a3.021,3.021,0,0,1,.9,2.767,1.912,1.912,0,0,1-1.426,1.7,5.353,5.353,0,0,1-5.64-1.145,11.446,11.446,0,0,1-1.554-1.685c-5.015-6.694-9.7-13.616-14.423-20.519Z" transform="translate(-105.032 -0.75)" fill="current"/>
    <path id="Path_12" data-name="Path 12" d="M-1882.542-29.5a8.994,8.994,0,0,0,8.66,3.308,5.506,5.506,0,0,0,4.758-3.76c1.034,1.828,2.262,3.272,4.548,3.228l-.044.2c-.546.256-1.094.508-1.636.771-.271.131-.362-.1-.49-.232-.548-.567-1.1-1.128-1.622-1.721-.286-.327-.434-.309-.709.03a7.828,7.828,0,0,1-4.888,3.008,8.654,8.654,0,0,1-5.1-.934,12.2,12.2,0,0,1-2.737-1.719c-.36-.3-.549-.262-.875.05a8.019,8.019,0,0,1-6.388,2.522,10.969,10.969,0,0,1-5.993-2.724c-.433-.352-.615-.439-.994.1a6.779,6.779,0,0,1-7.753,2.453,12.389,12.389,0,0,1-4.647-2.531c-.308-.261-.476-.323-.805.023a8.236,8.236,0,0,1-10.627,1.6,9.414,9.414,0,0,1-2.141-1.522c-.388-.385-.6-.379-1.011.007a9.081,9.081,0,0,1-6.613,2.754,6.512,6.512,0,0,1-5.3-2.648c-.276-.366-.413-.388-.66-.013a7.564,7.564,0,0,1-3.053,2.268.346.346,0,0,1-.43,0c-.437-.34-.883-.669-1.34-1.013.085-.078.114-.127.151-.134a6.965,6.965,0,0,0,4.387-3.023c.265-.378.428-.348.747-.02a7.973,7.973,0,0,0,5.776,2.826,7.963,7.963,0,0,0,3.777-1.13,15.065,15.065,0,0,0,2.927-2.046c.278-.249.4-.276.652.062a8.461,8.461,0,0,0,10.844,2.2,5.383,5.383,0,0,0,1.922-1.765c.275-.441.4-.467.8-.084a9.179,9.179,0,0,0,9.337,2.363,5.472,5.472,0,0,0,3.185-2.365c.205-.319.293-.4.6-.071,2.735,2.856,6.078,3.389,9.745,2.388A4.559,4.559,0,0,0-1882.542-29.5Z" transform="translate(-83.799 -351.858)" fill="current"/>
    <path id="Path_13" data-name="Path 13" d="M-1940.487,2.515c.432-.091.756-.155,1.077-.228a5.612,5.612,0,0,0,3.548-2.712c.2-.318.285-.424.581-.05a8.112,8.112,0,0,0,12.751-.23c.05-.068.108-.13.2-.247a7.422,7.422,0,0,0,6.672,3.551c2.743.04,5.182-.64,6.723-3.276a7.488,7.488,0,0,0,4.482,2.936,11.516,11.516,0,0,0,5.353.092,4.056,4.056,0,0,0,3.419-2.975c.282.041.406.273.583.422a10.009,10.009,0,0,0,6.75,2.668,6.972,6.972,0,0,0,5.5-2.715c.315-.391.425-.454.8-.037a8.4,8.4,0,0,0,8.6,2.764A6.134,6.134,0,0,0-1869.315-1a4.082,4.082,0,0,0,3.971,2.357c-.649.223-1.288.487-1.951.652-.394.1-.706-.248-1.007-.458a.955.955,0,0,0-1.38.085,8.617,8.617,0,0,1-5.825,2.317,9.308,9.308,0,0,1-4.032-1.227,11.926,11.926,0,0,1-2.158-1.38c-.365-.3-.554-.245-.87.069a8.2,8.2,0,0,1-7.393,2.427,11.391,11.391,0,0,1-5.247-2.328c-.34-.261-.517-.338-.866.022a7.734,7.734,0,0,1-10.182,1.388,10.786,10.786,0,0,1-2.222-1.64c-.358-.355-.544-.331-.9.026a8.213,8.213,0,0,1-6.767,2.751,10.039,10.039,0,0,1-5.712-2.68c-.492-.433-.7-.4-1.137.076a7.834,7.834,0,0,1-11.627.132c-.368-.384-.541-.362-.874,0a9.276,9.276,0,0,1-3.01,1.755.446.446,0,0,1-.442-.053Z" transform="translate(-83.754 -376.899)" fill="current"/>
    <path id="Path_14" data-name="Path 14" d="M-1832.333,32.229a10.6,10.6,0,0,0,4.184-3.065c.333-.371.48-.333.78.047a8.732,8.732,0,0,0,12.17,1.079c.084-.074.161-.159.249-.228.3-.233.431-.78.779-.76.266.015.5.468.761.713,2.863,2.686,7.741,3,10.64.7a4.892,4.892,0,0,0,1.229-1.335c.261-.45.432-.392.787-.087a10.906,10.906,0,0,0,7.552,2.95,5.532,5.532,0,0,0,5.04-2.843c.2-.355.312-.266.522-.042.63.676,1.275,1.336,1.9,2.012.1.11.359.225.136.426-.146.131-.342.24-.535.039a.377.377,0,0,0-.051-.044c-.469-.337-.863-1.045-1.367-.984-.44.054-.78.744-1.207,1.1-2.52,2.117-5.34,2.244-8.319,1.207a13.432,13.432,0,0,1-3.622-1.923c-.257-.191-.414-.24-.663.035-2.957,3.271-7.755,3.59-11.717.554-.388-.3-.71-.886-1.147-.851-.383.031-.719.557-1.089.848a8.272,8.272,0,0,1-10.328.54,11.972,11.972,0,0,1-1.993-1.5c-.278-.267-.46-.241-.72.021-.6.607-1.263,1.159-1.845,1.784a.722.722,0,0,1-1.087.16C-1831.563,32.6-1831.874,32.468-1832.333,32.229Z" transform="translate(-177.278 -402.758)" fill="current"/>
    <path id="Path_15" data-name="Path 15" d="M-2022.684-53.7c4.641,0,9.283.008,13.924-.012.514,0,.721.105.659.65-.061.53.157,1.239-.114,1.556-.286.335-1.014.1-1.547.1q-13.417.009-26.835.018c-.577,0-.809-.108-.727-.72.068-.505-.147-1.186.113-1.491.274-.322.971-.1,1.482-.1Q-2029.207-53.708-2022.684-53.7Z" transform="translate(0 -331.264)" fill="current"/>
    <path id="Path_16" data-name="Path 16" d="M-1081.15,30.4c.536.332.994.683,1.5-.068.032.56-.209.706-.588.715a1.364,1.364,0,0,1-.7-.208c-.51-.287-.972-.376-1.341.357.365-.888-.353-.832-.744-1.055a2.4,2.4,0,0,1-1.166-2.7,2.4,2.4,0,0,1,2.252-1.8,2.4,2.4,0,0,1,2.385,1.717,2.4,2.4,0,0,1-1.064,2.737C-1080.768,30.188-1080.921,30.272-1081.15,30.4Zm-.682-4.481a2.09,2.09,0,0,0-2.139,2.122,2.084,2.084,0,0,0,2.08,2.109,2.123,2.123,0,0,0,2.154-2.12A2.13,2.13,0,0,0-1081.831,25.923Z" transform="translate(-824.145 -399.936)" fill="current"/>
    <path id="Path_17" data-name="Path 17" d="M-781.111-33.163v4.028c-.337-.195-.228-.42-.23-.6q-.017-1.755,0-3.509c0-.2-.134-.507.165-.58.266-.065.353.237.476.409.879,1.22,1.748,2.448,2.775,3.655V-33.85c.349.09.274.279.275.413.006,1.26.008,2.52,0,3.779,0,.158.11.382-.13.466s-.36-.1-.481-.27q-1.154-1.62-2.314-3.237c-.117-.163-.239-.322-.359-.483Z" transform="translate(-1086.07 -348.492)" fill="current"/>
    <path id="Path_18" data-name="Path 18" d="M-923.477,26.2v1.847c0,.742.012,1.485-.008,2.227-.005.19.166.482-.173.562-.288.068-.376-.2-.5-.373-.75-1.039-1.492-2.084-2.238-3.126a1.371,1.371,0,0,0-.527-.485v3.969c-.315-.03-.249-.2-.249-.314q-.009-1.923,0-3.847c0-.166-.08-.4.149-.467s.307.148.407.287c.825,1.151,1.643,2.307,2.47,3.458.084.118.129.291.406.317V26.2Z" transform="translate(-959.978 -400.397)" fill="current"/>
    <path id="Path_19" data-name="Path 19" d="M-921.781-29.184v-4.1l-.161-.06-1.687,2.156-1.612-2.075-.192.059v4.018c-.335,0-.284-.171-.285-.288q-.008-1.957,0-3.914c0-.161-.087-.386.182-.438.217-.042.322.124.432.266.48.622.958,1.245,1.479,1.924.493-.642.953-1.248,1.42-1.849.133-.172.252-.427.526-.326.253.093.132.352.134.534.01,1.364.006,2.728.006,4.091Z" transform="translate(-961.238 -348.504)" fill="current"/>
    <path id="Path_20" data-name="Path 20" d="M-981.771,30.816V26.665l-.145-.076-1.682,2.163-1.616-2.069-.175.047v4.016c-.381.007-.3-.2-.3-.331q-.01-1.923,0-3.846c0-.163-.088-.387.163-.454.21-.056.327.1.438.247.409.537.833,1.062,1.222,1.613.209.3.344.263.537,0,.4-.544.814-1.075,1.223-1.612.111-.146.231-.3.439-.245.25.07.15.3.151.458q.012,1.889,0,3.779C-981.52,30.491-981.451,30.669-981.771,30.816Z" transform="translate(-909.375 -400.335)" fill="current"/>
    <path id="Path_21" data-name="Path 21" d="M-1210.407,28.047a2.442,2.442,0,0,1-2.409,2.415,2.46,2.46,0,0,1-2.411-2.42,2.421,2.421,0,0,1,2.414-2.4A2.4,2.4,0,0,1-1210.407,28.047Zm-4.515.025a2.084,2.084,0,0,0,2.1,2.087,2.125,2.125,0,0,0,2.132-2.142,2.129,2.129,0,0,0-2.118-2.089A2.092,2.092,0,0,0-1214.922,28.072Z" transform="translate(-710.904 -399.94)" fill="current"/>
    <path id="Path_22" data-name="Path 22" d="M-1172.428,28.031a2.444,2.444,0,0,1-2.393,2.432,2.46,2.46,0,0,1-2.427-2.4,2.419,2.419,0,0,1,2.4-2.413A2.4,2.4,0,0,1-1172.428,28.031Zm-4.516.012a2.085,2.085,0,0,0,2.074,2.115,2.124,2.124,0,0,0,2.161-2.113,2.13,2.13,0,0,0-2.089-2.117A2.091,2.091,0,0,0-1176.944,28.043Z" transform="translate(-743.745 -399.94)" fill="current"/>
    <path id="Path_23" data-name="Path 23" d="M-1212.795-34.294a2.4,2.4,0,0,1,2.387,2.418,2.442,2.442,0,0,1-2.427,2.4,2.458,2.458,0,0,1-2.393-2.437A2.422,2.422,0,0,1-1212.795-34.294Zm-2.128,2.428a2.085,2.085,0,0,0,2.106,2.084,2.126,2.126,0,0,0,2.129-2.145,2.129,2.129,0,0,0-2.121-2.086A2.092,2.092,0,0,0-1214.922-31.866Z" transform="translate(-710.904 -348.107)" fill="current"/>
    <path id="Path_24" data-name="Path 24" d="M-1174.832-34.294a2.4,2.4,0,0,1,2.4,2.4,2.442,2.442,0,0,1-2.411,2.413,2.459,2.459,0,0,1-2.408-2.422A2.421,2.421,0,0,1-1174.832-34.294Zm-2.112,2.433a2.085,2.085,0,0,0,2.11,2.079,2.127,2.127,0,0,0,2.125-2.15,2.13,2.13,0,0,0-2.126-2.081A2.091,2.091,0,0,0-1176.944-31.861Z" transform="translate(-743.745 -348.108)" fill="current"/>
    <path id="Path_25" data-name="Path 25" d="M-962.968-34.294a2.4,2.4,0,0,1,2.414,2.392,2.443,2.443,0,0,1-2.4,2.424,2.46,2.46,0,0,1-2.419-2.412A2.42,2.42,0,0,1-962.968-34.294Zm-2.1,2.4a2.085,2.085,0,0,0,2.08,2.11,2.123,2.123,0,0,0,2.155-2.119,2.129,2.129,0,0,0-2.1-2.112A2.091,2.091,0,0,0-965.07-31.892Z" transform="translate(-926.957 -348.108)" fill="current"/>
    <path id="Path_26" data-name="Path 26" d="M-984.588-29.22c-.607-.146-.647-.595-.881-.865a3.151,3.151,0,0,1-.368-.563c-.187-.345-.508-.249-.779-.222-.353.036-.19.348-.2.539-.026.344-.007.691-.007,1.035-.362,0-.3-.2-.3-.331-.006-1.28.009-2.561-.012-3.841-.007-.4.147-.521.515-.483.178.018.359,0,.539,0a1.59,1.59,0,0,1,1.5,1.138,1.452,1.452,0,0,1-.683,1.681c-.348.221-.346.371-.132.664C-985.134-30.1-984.91-29.719-984.588-29.22Zm-2.239-3.206a4.407,4.407,0,0,0,.006.6c.031.219-.144.51.171.644a1.488,1.488,0,0,0,1.659-.593,1.246,1.246,0,0,0-.122-1.446,1.327,1.327,0,0,0-1.477-.389c-.494.147-.136.693-.236,1.047A.505.505,0,0,0-986.827-32.426Z" transform="translate(-908.14 -348.4)" fill="current"/>
    <path id="Path_27" data-name="Path 27" d="M-1041.974,26.335c0,.66,0,1.32,0,1.98,0,.45.024.9-.015,1.35a1.505,1.505,0,0,1-1.509,1.356,1.449,1.449,0,0,1-1.5-1.275c-.064-1.076-.026-2.159-.026-3.239,0-.09.05-.17.289-.162V27.56c0,.63-.01,1.261,0,1.891a1.179,1.179,0,0,0,1.257,1.27,1.164,1.164,0,0,0,1.2-1.255c.013-.833,0-1.666.008-2.5C-1042.267,26.76-1042.36,26.525-1041.974,26.335Z" transform="translate(-858.069 -400.535)" fill="current"/>
    <path id="Path_28" data-name="Path 28" d="M-832.353-29.01a4.009,4.009,0,0,1-.123-1.62c0-.4-.079-.577-.519-.542-.581.046-1.312-.174-1.711.1-.439.306-.1,1.083-.166,1.649-.018.143.066.322-.214.454v-4.66a1.97,1.97,0,0,1,.2,1.394c-.026.563.1.8.734.782,1.642-.034,1.639,0,1.667-1.631,0-.183-.092-.4.118-.552A16.772,16.772,0,0,1-832.353-29.01Z" transform="translate(-1039.621 -348.681)" fill="current"/>
    <path id="Path_29" data-name="Path 29" d="M-1103.726-33.554c-.5,0-1.006.018-1.508-.006-.362-.017-.507.078-.517.479-.036,1.418-.053,1.414,1.391,1.428.21,0,.443-.08.655.3a10.731,10.731,0,0,1-1.222-.009c-.615-.071-.872.081-.831.776.066,1.132.017,1.127,1.133,1.14.3,0,.618-.088.914.258-.726,0-1.454.016-2.179-.01-.211-.008-.147-.246-.147-.389q-.008-1.921,0-3.841c0-.172-.039-.407.22-.414.7-.017,1.4-.006,2.1-.006Z" transform="translate(-805.315 -348.488)" fill="current"/>
    <path id="Path_30" data-name="Path 30" d="M-1061.7-33.6a3.778,3.778,0,0,1-1.484.089c-.378,0-.554.064-.559.51-.018,1.394-.039,1.388,1.352,1.4a.867.867,0,0,1,.862.295c-.672,0-1.181.028-1.685-.009-.425-.03-.524.124-.526.532-.007,1.376-.024,1.373,1.354,1.381a1.334,1.334,0,0,1,.88.193,13.018,13.018,0,0,1-2.335.073c-.23,0-.186-.217-.187-.363q-.006-1.954,0-3.909c0-.151-.031-.37.181-.376.717-.021,1.435-.008,2.152-.008C-1061.7-33.722-1061.7-33.66-1061.7-33.6Z" transform="translate(-841.645 -348.544)" fill="current"/>
    <path id="Path_31" data-name="Path 31" d="M-1103.816,26.164a5.5,5.5,0,0,1-1.565.064c-.351,0-.451.116-.464.465-.056,1.437-.068,1.431,1.372,1.446.223,0,.486-.105.726.184a4.2,4.2,0,0,1-1.6.1c-.374,0-.494.1-.5.491-.029,1.418-.044,1.415,1.378,1.426a1.04,1.04,0,0,1,.678.094c-.169.33-.475.171-.7.174-1.648.021-1.648.013-1.648-1.6,0-.786.046-1.576-.014-2.358-.048-.627.188-.776.76-.725.52.047,1.048.01,1.572.01Z" transform="translate(-805.218 -400.17)" fill="current"/>
    <path id="Path_32" data-name="Path 32" d="M-947.818,26.387c-.5,0-1.006.017-1.508-.006-.361-.017-.508.076-.518.478-.036,1.419-.053,1.413,1.39,1.43.217,0,.483-.111.705.2a4.519,4.519,0,0,1-1.542.088c-.379,0-.552.057-.556.506-.011,1.4-.034,1.4,1.4,1.41.212,0,.444-.079.645.259-.726,0-1.453.016-2.179-.01-.211-.008-.147-.246-.148-.389q-.008-1.921,0-3.841c0-.172-.04-.408.22-.414.7-.017,1.4-.006,2.1-.006Q-947.812,26.239-947.818,26.387Z" transform="translate(-940.132 -400.32)" fill="current"/>
    <path id="Path_33" data-name="Path 33" d="M-887.805-29.182c-.718,0-1.436.008-2.153-.005-.181,0-.169-.181-.169-.311q0-1.988,0-3.976c0-.187.008-.376.266-.377.682,0,1.365,0,2.194,0-.422.3-.424.333-1.428.286-.586-.027-.773.128-.748.735.049,1.174.012,1.174,1.171,1.177.268,0,.537.018.8.037.025,0,.046.068.111.173a4.807,4.807,0,0,1-1.573.079c-.367,0-.5.088-.508.484-.03,1.424-.047,1.421,1.373,1.431a1.149,1.149,0,0,1,.656.07Z" transform="translate(-992.023 -348.489)" fill="current"/>
    <path id="Path_34" data-name="Path 34" d="M-1237.934-29.305a1.764,1.764,0,0,1-.068-.829c-.008-1.1.012-2.2-.011-3.3-.009-.408.114-.581.532-.534.244.028.5-.012.74.02a1.564,1.564,0,0,1,1.334,1.606,1.447,1.447,0,0,1-1.431,1.416c-.785-.054-.98.239-.873.938a3.584,3.584,0,0,1-.025.689Zm.23-3.109c0,.291.008.583,0,.874-.009.245.065.381.339.362a2.514,2.514,0,0,0,.926-.1,1.232,1.232,0,0,0,.686-1.507,1.285,1.285,0,0,0-1.61-.855c-.679.139-.2.733-.337,1.1A.385.385,0,0,0-1237.7-32.414Z" transform="translate(-691.196 -348.384)" fill="current"/>
    <path id="Path_35" data-name="Path 35" d="M-1237.891,30.694a1.539,1.539,0,0,1-.122-.952c-.014-1.055.024-2.111-.018-3.164-.021-.527.166-.649.654-.627a1.953,1.953,0,0,1,1.49.467,1.432,1.432,0,0,1,.388,1.542,1.469,1.469,0,0,1-1.27,1.057c-.94.111-.936.1-.954,1.039C-1237.726,30.242-1237.645,30.453-1237.891,30.694Zm.173-3.191c0,.291-.005.583,0,.874,0,.147-.043.342.191.358a1.572,1.572,0,0,0,1.538-.446,1.228,1.228,0,0,0,.052-1.5,1.4,1.4,0,0,0-1.564-.494c-.457.227-.125.717-.217,1.077A.522.522,0,0,0-1237.718,27.5Z" transform="translate(-691.183 -400.201)" fill="current"/>
    <path id="Path_36" data-name="Path 36" d="M-1009.009,30.647c-.283-.109-.162-.347-.164-.519-.012-1.189.016-2.38-.017-3.568-.014-.489.163-.6.617-.593a1.91,1.91,0,0,1,1.594.539,1.419,1.419,0,0,1,.284,1.563,1.468,1.468,0,0,1-1.268.967c-.911.085-.9.084-.923,1C-1008.889,30.236-1008.775,30.479-1009.009,30.647Zm.131-3.154a4.437,4.437,0,0,0,.006.6c.03.22-.143.511.165.648a1.488,1.488,0,0,0,1.662-.587,1.245,1.245,0,0,0-.115-1.447,1.326,1.326,0,0,0-1.475-.394c-.5.146-.139.691-.241,1.042A.5.5,0,0,0-1008.879,27.493Z" transform="translate(-889.062 -400.216)" fill="current"/>
    <path id="Path_37" data-name="Path 37" d="M-806.79-29.081a4.061,4.061,0,0,1-.621-1.5.664.664,0,0,0-.82-.558c-.474.057-1.039-.195-1.225.57a4.808,4.808,0,0,1-.692,1.632,1.178,1.178,0,0,1,.12-.832q.669-1.837,1.343-3.671c.045-.124.06-.277.224-.307.18-.033.223.111.269.238q.79,2.173,1.578,4.347Zm-1.632-4.209c-.069.167-.1.227-.12.289-.125.335-.224.684-.38,1-.251.515-.1.646.445.619.754-.038.757-.007.5-.725C-808.11-32.458-808.244-32.812-808.422-33.29Z" transform="translate(-1061.156 -348.582)" fill="current"/>
    <path id="Path_38" data-name="Path 38" d="M-738.281-30.121a2.142,2.142,0,0,1-3.113.085,2.393,2.393,0,0,1-.1-3.445,2.205,2.205,0,0,1,3.244,0,2.647,2.647,0,0,0-2.5-.2,2.1,2.1,0,0,0-1.1,2.262,2.047,2.047,0,0,0,1.452,1.629A2.788,2.788,0,0,0-738.281-30.121Z" transform="translate(-1119.961 -348.196)" fill="current"/>
    <path id="Path_39" data-name="Path 39" d="M-864.19-30.2a2.133,2.133,0,0,1-3.158.071,2.4,2.4,0,0,1,.023-3.494,2.146,2.146,0,0,1,3.167.119c-1.331-.719-2.527-.726-3.391.644a1.993,1.993,0,0,0,.188,2.28A2.271,2.271,0,0,0-864.19-30.2Z" transform="translate(-1011.08 -348.137)" fill="current"/>
    <path id="Path_40" data-name="Path 40" d="M-1037.986-33.568c-1.332-.724-2.527-.724-3.39.639a1.994,1.994,0,0,0,.225,2.333c.917,1.027,1.982.973,3.168.231a1.737,1.737,0,0,1-1.944.8,2.375,2.375,0,0,1-1.97-2.108,2.4,2.4,0,0,1,1.411-2.46A2.03,2.03,0,0,1-1037.986-33.568Z" transform="translate(-860.774 -348.073)" fill="current"/>
    <path id="Path_41" data-name="Path 41" d="M-897.225,26.634h2.666c-.077.289-.267.244-.4.22-.7-.124-.809.23-.78.833.046.962.018,1.929.008,2.893,0,.209.087.445-.115.644-.277-.093-.178-.328-.179-.5-.01-1.054-.035-2.11.007-3.162.022-.549-.123-.795-.7-.714C-896.877,26.875-897.09,26.944-897.225,26.634Z" transform="translate(-985.887 -400.794)" fill="current"/>
    <path id="Path_42" data-name="Path 42" d="M-1010.374-33.389h2.7c-.1.327-.341.251-.5.229-.592-.083-.708.192-.688.725.039,1.053.015,2.108.007,3.163,0,.163.08.365-.134.479-.256-.077-.16-.292-.162-.447-.009-1.054-.034-2.11.007-3.163.022-.56-.089-.865-.723-.755A.41.41,0,0,1-1010.374-33.389Z" transform="translate(-888.045 -348.89)" fill="current"/>
    <path id="Path_43" data-name="Path 43" d="M-1136.666-33.479v1.336c0,.832.024,1.665-.01,2.5-.017.427.128.554.537.52s.8-.007,1.2-.007l.012.26c-.633,0-1.266.007-1.9-.006-.143,0-.137-.158-.137-.266q0-2.092.008-4.183C-1136.954-33.417-1136.91-33.5-1136.666-33.479Z" transform="translate(-778.581 -348.809)" fill="current"/>
    <path id="Path_44" data-name="Path 44" d="M-1082.751-33.544a3.523,3.523,0,0,1,.05,1.081c.012.922.026,1.845-.006,2.766-.015.429.132.54.538.522a3.22,3.22,0,0,1,1.2.054l.014.2c-.633,0-1.266.008-1.9-.006-.143,0-.137-.159-.137-.266q0-2.091.008-4.182C-1082.986-33.471-1082.936-33.552-1082.751-33.544Z" transform="translate(-825.248 -348.756)" fill="current"/>
    <path id="Path_45" data-name="Path 45" d="M-1136.66,25.543v3.4c0,1.073,0,1.066,1.043,1.08a.915.915,0,0,1,.851.263c-.785,0-1.408.006-2.031,0-.141,0-.16-.138-.159-.251q.019-2.155.047-4.309C-1136.909,25.7-1136.844,25.671-1136.66,25.543Z" transform="translate(-778.586 -399.85)" fill="current"/>
    <path id="Path_46" data-name="Path 46" d="M-747.15-33.56v4.611l-.14,0v-4.611Z" transform="translate(-1115.54 -348.743)" fill="current"/>
    <path id="Path_47" data-name="Path 47" d="M-1016.057,26.384v4.61h-.14v-4.61Z" transform="translate(-883.009 -400.578)" fill="current"/>
    <path id="Path_48" data-name="Path 48" d="M-1916.742-436.644l-.135-.183c.11-.055.2-.049.244.085Z" transform="translate(-104.17 0)" fill="current"/>
    <path id="Path_49" data-name="Path 49" d="M-801.114-30.373c.178.478.312.832.441,1.188.261.718.258.687-.5.725-.541.027-.7-.1-.445-.619.156-.321.255-.669.38-1C-801.211-30.146-801.183-30.206-801.114-30.373Z" transform="translate(-1068.464 -351.498)" fill="current"/>
  </g>
</svg>
